<?xml version="1.0" encoding="iso-8859-1"?>
<!-- Generator: Adobe Illustrator 19.0.0, SVG Export Plug-In . SVG Version: 6.00 Build 0)  -->
<svg version="1.1" id="Layer_1" xmlns="http://www.w3.org/2000/svg" xmlns:xlink="http://www.w3.org/1999/xlink" x="0px" y="0px"
	 viewBox="0 0 511.984 511.984" style="enable-background:new 0 0 511.984 511.984;" xml:space="preserve">
<path style="fill:#ED5564;" d="M484.985,205.994l-67.998-52.999l-86.997-35.999l-68.998-10h-38.999l-128.996,33l-77.998,81.341
	c0,0,0,207.65,0,212.649l485.984,4.672V227.993L484.985,205.994z"/>
<rect x="86.662" y="289.332" style="fill:#FFCE54;" width="336.65" height="149.32"/>
<rect x="139.332" y="178.012" style="fill:#4FC2E9;" width="231.33" height="43.33"/>
<path style="fill:#656D78;" d="M460.986,140.996l-59.498-33.999L298.491,78.498l-59.998-6l-59.999,9l-81.998,25.5l-61.998,51.499
	l-19.499,32.999l3,25.5l73.498-66.498l52.998-21.5l69.498-15.5l79.498-1l77.169,12c0,0,50.983,32.874,52.655,33.437
	s74.669,56.061,74.669,56.061l3-25.999L460.986,140.996z"/>
<path d="M497.297,167.667c-7.64-11.265-21.529-28.296-44.186-45.499c-34.999-26.546-97.591-58.17-197.119-58.17
	c-99.536,0-162.127,31.625-197.111,58.17C18.273,152.98,0,187.775,0,202.65v42.686v149.308v42.686
	c0,5.875,4.773,10.656,10.664,10.656h74.669h170.659l0,0h170.651h74.685c5.875,0,10.656-4.781,10.656-10.656v-42.686V245.336V202.65
	C511.984,194.15,506.64,181.401,497.297,167.667z M71.779,139.152c32.366-24.546,90.607-53.811,184.213-53.811
	c93.607,0,151.84,29.265,184.213,53.811c30.219,22.937,44.343,46.342,48.812,57.545c-8.141-10.796-19.718-23.796-35.562-36.921
	c-35.155-29.093-97.966-63.779-197.463-63.779c-99.504,0-162.299,34.687-197.462,63.779c-15.851,13.125-27.413,26.125-35.554,36.921
	C27.437,185.494,41.554,162.089,71.779,139.152z M245.328,426.643H95.997V298.647h149.332v127.996H245.328z M266.656,426.643
	V298.647h149.331v127.996H266.656z M490.641,426.643h-53.312V287.991c0-5.89-4.781-10.655-10.687-10.655h-170.65l0,0H85.333
	c-5.89,0-10.671,4.766-10.671,10.655v138.652H21.335V245.336c0-5.75,12.703-37.593,50.795-69.123
	c32.46-26.874,90.708-58.873,183.861-58.873c93.154,0,151.402,31.999,183.869,58.873c38.094,31.53,50.78,63.373,50.78,69.123
	v181.307H490.641z"/>
<path d="M117.332,373.332h106.661c5.891,0,10.664-4.781,10.664-10.687c0-5.875-4.773-10.656-10.664-10.656H117.332
	c-5.89,0-10.671,4.781-10.671,10.656C106.661,368.551,111.442,373.332,117.332,373.332z"/>
<path d="M117.332,341.334h106.661c5.891,0,10.664-4.781,10.664-10.688c0-5.875-4.773-10.656-10.664-10.656H117.332
	c-5.89,0-10.671,4.781-10.671,10.656C106.661,336.553,111.442,341.334,117.332,341.334z"/>
<path d="M117.332,405.332h106.661c5.891,0,10.664-4.781,10.664-10.688c0-5.875-4.773-10.656-10.664-10.656H117.332
	c-5.89,0-10.671,4.781-10.671,10.656C106.661,400.551,111.442,405.332,117.332,405.332z"/>
<path d="M394.644,351.989H287.991c-5.89,0-10.655,4.781-10.655,10.656c0,5.905,4.766,10.687,10.655,10.687h106.653
	c5.906,0,10.688-4.781,10.688-10.687C405.332,356.77,400.551,351.989,394.644,351.989z"/>
<path d="M394.644,319.99H287.991c-5.89,0-10.655,4.781-10.655,10.656c0,5.906,4.766,10.688,10.655,10.688h106.653
	c5.906,0,10.688-4.781,10.688-10.688C405.332,324.771,400.551,319.99,394.644,319.99z"/>
<path d="M394.644,383.988H287.991c-5.89,0-10.655,4.781-10.655,10.656c0,5.906,4.766,10.688,10.655,10.688h106.653
	c5.906,0,10.688-4.781,10.688-10.688C405.332,388.769,400.551,383.988,394.644,383.988z"/>
<path d="M373.332,170.651H138.66c-5.891,0-10.664,4.781-10.664,10.687v42.655c0,5.891,4.773,10.656,10.664,10.656h234.672
	c5.875,0,10.656-4.766,10.656-10.656v-42.655C383.988,175.432,379.207,170.651,373.332,170.651z M149.331,191.994h95.997v21.343
	h-95.997L149.331,191.994L149.331,191.994z M362.645,213.337h-95.989v-21.343h95.989V213.337z"/>
<g>
</g>
<g>
</g>
<g>
</g>
<g>
</g>
<g>
</g>
<g>
</g>
<g>
</g>
<g>
</g>
<g>
</g>
<g>
</g>
<g>
</g>
<g>
</g>
<g>
</g>
<g>
</g>
<g>
</g>
</svg>
