<?xml version="1.0" encoding="iso-8859-1"?>
<!-- Generator: Adobe Illustrator 19.0.0, SVG Export Plug-In . SVG Version: 6.00 Build 0)  -->
<svg version="1.1" id="Layer_1" xmlns="http://www.w3.org/2000/svg" xmlns:xlink="http://www.w3.org/1999/xlink" x="0px" y="0px"
	 viewBox="0 0 512 512" style="enable-background:new 0 0 512 512;" xml:space="preserve">
<g transform="translate(1 1)">
	<path style="fill:#FFE100;" d="M476.867,502.467H33.133V33.987c0-14.507,11.947-26.453,26.453-26.453h391.68
		c13.653,0,25.6,11.947,25.6,26.453V502.467z"/>
	<path style="fill:#FFFFFF;" d="M59.587,7.533h-25.6C19.48,7.533,7.533,19.48,7.533,33.987v468.48h25.6V33.987
		C33.133,19.48,45.08,7.533,59.587,7.533"/>
	<path style="fill:#FFA800;" d="M476.013,7.533h-25.6c14.507,0,26.453,11.947,26.453,26.453v468.48h25.6V33.987
		C502.467,19.48,490.52,7.533,476.013,7.533"/>
	<polygon style="fill:#FDCC00;" points="50.2,502.467 459.8,502.467 459.8,323.267 50.2,323.267 	"/>
	<polygon style="fill:#FFA800;" points="50.2,502.467 459.8,502.467 459.8,323.267 50.2,323.267 	"/>
	<g>
		<path style="fill:#FDCC00;" d="M135.533,476.867c0-14.507-11.093-25.6-25.6-25.6s-25.6,11.093-25.6,25.6
			c0,14.507,11.093,25.6,25.6,25.6S135.533,491.373,135.533,476.867"/>
		<path style="fill:#FDCC00;" d="M186.733,476.867c0-14.507-11.093-25.6-25.6-25.6c-14.507,0-25.6,11.093-25.6,25.6
			c0,14.507,11.093,25.6,25.6,25.6C175.64,502.467,186.733,491.373,186.733,476.867"/>
	</g>
	<polygon style="fill:#FFA800;" points="357.4,434.2 374.467,434.2 374.467,365.933 357.4,365.933 	"/>
	<polygon style="fill:#FDCC00;" points="272.067,434.2 357.4,434.2 357.4,365.933 272.067,365.933 	"/>
	<polygon style="fill:#FFA800;" points="408.6,502.467 425.667,502.467 425.667,434.2 408.6,434.2 	"/>
	<polygon style="fill:#FDCC00;" points="323.267,502.467 408.6,502.467 408.6,434.2 323.267,434.2 	"/>
	<polygon style="fill:#FFA800;" points="306.2,502.467 323.267,502.467 323.267,434.2 306.2,434.2 	"/>
	<g>
		<polygon style="fill:#FDCC00;" points="220.867,502.467 306.2,502.467 306.2,434.2 220.867,434.2 		"/>
		<polygon style="fill:#FDCC00;" points="306.2,400.067 340.333,400.067 340.333,365.933 306.2,365.933 		"/>
		<polygon style="fill:#FDCC00;" points="359.107,468.333 393.24,468.333 393.24,434.2 359.107,434.2 		"/>
		<polygon style="fill:#FDCC00;" points="255,468.333 289.133,468.333 289.133,434.2 255,434.2 		"/>
	</g>
	<polygon style="fill:#63D3FD;" points="50.2,323.267 459.8,323.267 459.8,186.733 50.2,186.733 	"/>
	<g>
		<polygon style="fill:#3DB9F9;" points="442.733,186.733 468.333,186.733 468.333,135.533 442.733,135.533 		"/>
		<polygon style="fill:#3DB9F9;" points="41.667,186.733 442.733,186.733 442.733,135.533 41.667,135.533 		"/>
		<polygon style="fill:#3DB9F9;" points="348.867,101.4 374.467,101.4 374.467,41.667 348.867,41.667 		"/>
	</g>
	<polygon style="fill:#63D3FD;" points="135.533,101.4 348.867,101.4 348.867,41.667 135.533,41.667 	"/>
	<path d="M502.467,511H7.533C2.413,511-1,507.587-1,502.467V33.987C-1,14.36,14.36-1,33.987-1h442.88C495.64-1,511,14.36,511,33.987
		v357.547c0,5.12-3.413,8.533-8.533,8.533c-5.12,0-8.533-3.413-8.533-8.533V33.987c0-10.24-7.68-17.92-17.92-17.92H33.987
		c-10.24,0-17.92,7.68-17.92,17.92v459.947h477.867V459.8c0-5.12,3.413-8.533,8.533-8.533c5.12,0,8.533,3.413,8.533,8.533v42.667
		C511,507.587,507.587,511,502.467,511z"/>
	<path d="M511,425.667c0-5.12-3.413-8.533-8.533-8.533c-5.12,0-8.533,3.413-8.533,8.533s3.413,8.533,8.533,8.533
		C507.587,434.2,511,430.787,511,425.667"/>
	<path d="M468.333,195.267H41.667c-5.12,0-8.533-3.413-8.533-8.533v-51.2c0-5.12,3.413-8.533,8.533-8.533h426.667
		c5.12,0,8.533,3.413,8.533,8.533v51.2C476.867,191.853,473.453,195.267,468.333,195.267z M50.2,178.2h409.6v-34.133H50.2V178.2z"/>
	<path d="M459.8,331.8H50.2c-5.12,0-8.533-3.413-8.533-8.533V186.733c0-5.12,3.413-8.533,8.533-8.533h409.6
		c5.12,0,8.533,3.413,8.533,8.533v136.533C468.333,328.387,464.92,331.8,459.8,331.8z M58.733,314.733h392.533V195.267H58.733
		V314.733z"/>
	<path id="SVGCleanerId_0" d="M459.8,511H50.2c-5.12,0-8.533-3.413-8.533-8.533v-179.2c0-5.12,3.413-8.533,8.533-8.533h409.6
		c5.12,0,8.533,3.413,8.533,8.533v179.2C468.333,507.587,464.92,511,459.8,511z M58.733,493.933h392.533V331.8H58.733V493.933z"/>
	<path d="M323.267,511h-102.4c-5.12,0-8.533-3.413-8.533-8.533V434.2c0-5.12,3.413-8.533,8.533-8.533h102.4
		c5.12,0,8.533,3.413,8.533,8.533v68.267C331.8,507.587,328.387,511,323.267,511z M229.4,493.933h85.333v-51.2H229.4V493.933z"/>
	<path d="M374.467,442.733h-102.4c-5.12,0-8.533-3.413-8.533-8.533v-68.267c0-5.12,3.413-8.533,8.533-8.533h102.4
		c5.12,0,8.533,3.413,8.533,8.533V434.2C383,439.32,379.587,442.733,374.467,442.733z M280.6,425.667h85.333v-51.2H280.6V425.667z"
		/>
	<path d="M425.667,511h-102.4c-5.12,0-8.533-3.413-8.533-8.533V434.2c0-5.12,3.413-8.533,8.533-8.533h102.4
		c5.12,0,8.533,3.413,8.533,8.533v68.267C434.2,507.587,430.787,511,425.667,511z M331.8,493.933h85.333v-51.2H331.8V493.933z"/>
	<path d="M109.933,511C91.16,511,75.8,495.64,75.8,476.867s15.36-34.133,34.133-34.133s34.133,15.36,34.133,34.133
		S128.707,511,109.933,511z M109.933,459.8c-9.387,0-17.067,7.68-17.067,17.067s7.68,17.067,17.067,17.067S127,486.253,127,476.867
		S119.32,459.8,109.933,459.8z"/>
	<path d="M161.133,511C142.36,511,127,495.64,127,476.867s15.36-34.133,34.133-34.133s34.133,15.36,34.133,34.133
		S179.907,511,161.133,511z M161.133,459.8c-9.387,0-17.067,7.68-17.067,17.067s7.68,17.067,17.067,17.067
		s17.067-7.68,17.067-17.067S170.52,459.8,161.133,459.8z"/>
	<path d="M340.333,408.6H306.2c-5.12,0-8.533-3.413-8.533-8.533v-34.133c0-5.12,3.413-8.533,8.533-8.533h34.133
		c5.12,0,8.533,3.413,8.533,8.533v34.133C348.867,405.187,345.453,408.6,340.333,408.6z M314.733,391.533H331.8v-17.067h-17.067
		V391.533z"/>
	<path d="M289.133,476.867H255c-5.12,0-8.533-3.413-8.533-8.533V434.2c0-5.12,3.413-8.533,8.533-8.533h34.133
		c5.12,0,8.533,3.413,8.533,8.533v34.133C297.667,473.453,294.253,476.867,289.133,476.867z M263.533,459.8H280.6v-17.067h-17.067
		V459.8z"/>
	<path d="M391.533,476.867H357.4c-5.12,0-8.533-3.413-8.533-8.533V434.2c0-5.12,3.413-8.533,8.533-8.533h34.133
		c5.12,0,8.533,3.413,8.533,8.533v34.133C400.067,473.453,396.653,476.867,391.533,476.867z M365.933,459.8H383v-17.067h-17.067
		V459.8z"/>
	<path d="M374.467,109.933H135.533c-5.12,0-8.533-3.413-8.533-8.533V41.667c0-5.12,3.413-8.533,8.533-8.533h238.933
		c5.12,0,8.533,3.413,8.533,8.533V101.4C383,106.52,379.587,109.933,374.467,109.933z M144.067,92.867h221.867V50.2H144.067V92.867z
		"/>
	<path d="M459.8,229.4H50.2c-5.12,0-8.533-3.413-8.533-8.533c0-5.12,3.413-8.533,8.533-8.533h409.6c5.12,0,8.533,3.413,8.533,8.533
		C468.333,225.987,464.92,229.4,459.8,229.4z"/>
	<path d="M459.8,263.533H50.2c-5.12,0-8.533-3.413-8.533-8.533s3.413-8.533,8.533-8.533h409.6c5.12,0,8.533,3.413,8.533,8.533
		S464.92,263.533,459.8,263.533z"/>
	<path d="M459.8,297.667H50.2c-5.12,0-8.533-3.413-8.533-8.533c0-5.12,3.413-8.533,8.533-8.533h409.6
		c5.12,0,8.533,3.413,8.533,8.533C468.333,294.253,464.92,297.667,459.8,297.667z"/>
	<g>
		<path id="SVGCleanerId_0_1_" d="M459.8,511H50.2c-5.12,0-8.533-3.413-8.533-8.533v-179.2c0-5.12,3.413-8.533,8.533-8.533h409.6
			c5.12,0,8.533,3.413,8.533,8.533v179.2C468.333,507.587,464.92,511,459.8,511z M58.733,493.933h392.533V331.8H58.733V493.933z"/>
	</g>
</g>
<g>
</g>
<g>
</g>
<g>
</g>
<g>
</g>
<g>
</g>
<g>
</g>
<g>
</g>
<g>
</g>
<g>
</g>
<g>
</g>
<g>
</g>
<g>
</g>
<g>
</g>
<g>
</g>
<g>
</g>
</svg>
