<?xml version="1.0" encoding="iso-8859-1"?>
<!-- Generator: Adobe Illustrator 19.0.0, SVG Export Plug-In . SVG Version: 6.00 Build 0)  -->
<svg version="1.1" id="Layer_1" xmlns="http://www.w3.org/2000/svg" xmlns:xlink="http://www.w3.org/1999/xlink" x="0px" y="0px"
	 viewBox="0 0 512.045 512.045" style="enable-background:new 0 0 512.045 512.045;" xml:space="preserve">
<g>
	<polygon style="fill:#EAC36E;" points="119.734,239.073 36.233,268.099 36.233,457.044 157.69,457.044 	"/>
	<polygon style="fill:#EAC36E;" points="392.287,239.073 475.788,268.099 475.788,457.044 331.586,457.044 	"/>
</g>
<g>
	<rect x="36.233" y="324.956" style="fill:#4EBFED;" width="34.454" height="73.572"/>
	<rect x="441.338" y="324.956" style="fill:#4EBFED;" width="34.454" height="73.572"/>
</g>
<g>
	<polygon style="fill:#EAC36E;" points="76.26,404.095 36.233,404.095 36.233,392.947 65.113,392.947 65.113,330.524 
		36.233,330.524 36.233,319.377 76.26,319.377 	"/>
	<polygon style="fill:#EAC36E;" points="475.788,404.095 435.759,404.095 435.759,319.377 475.788,319.377 475.788,330.524 
		446.907,330.524 446.907,392.947 475.788,392.947 	"/>
</g>
<g>
	
		<rect x="56.822" y="191.93" transform="matrix(-0.3283 -0.9446 0.9446 -0.3283 -157.1481 404.3121)" style="fill:#415E72;" width="16.722" height="132.204"/>
	
		<rect x="380.759" y="249.67" transform="matrix(-0.9446 -0.3283 0.3283 -0.9446 784.2462 648.4614)" style="fill:#415E72;" width="132.204" height="16.722"/>
</g>
<polygon style="fill:#FCD577;" points="392.284,144.158 392.284,457.041 119.733,457.041 119.733,143.177 255.167,64.664 "/>
<polygon style="fill:#EAC36E;" points="392.284,146.188 392.284,165.518 255.167,86.034 119.733,164.547 119.733,145.218 
	255.167,66.703 "/>
<polygon style="fill:#415E72;" points="433.198,177.532 255.173,74.327 77.147,177.532 68.76,163.065 255.173,54.999 
	441.584,163.065 "/>
<rect x="220.066" y="324.956" style="fill:#FCD577;" width="71.903" height="132.09"/>
<polygon style="fill:#EAC36E;" points="297.535,457.042 286.387,457.042 286.387,330.524 225.636,330.524 225.636,457.042 
	214.488,457.042 214.488,319.377 297.535,319.377 "/>
<g>
	<rect x="152.756" y="324.956" style="fill:#4EBFED;" width="35.113" height="73.572"/>
	<rect x="324.153" y="324.956" style="fill:#4EBFED;" width="35.113" height="73.572"/>
	<rect x="152.756" y="202.03" style="fill:#4EBFED;" width="35.113" height="73.572"/>
	<rect x="238.449" y="202.03" style="fill:#4EBFED;" width="35.113" height="73.572"/>
	<rect x="324.153" y="202.03" style="fill:#4EBFED;" width="35.113" height="73.572"/>
</g>
<g>
	<path style="fill:#EAC36E;" d="M193.447,404.095h-46.261v-84.719h46.261V404.095z M158.332,392.947h23.965v-62.424h-23.965V392.947
		z"/>
	<path style="fill:#EAC36E;" d="M364.837,404.095h-46.262v-84.719h46.262V404.095z M329.723,392.947h23.967v-62.424h-23.967V392.947
		z"/>
	<path style="fill:#EAC36E;" d="M193.447,281.175h-46.261v-84.719h46.261V281.175z M158.332,270.028h23.965v-62.424h-23.965V270.028
		z"/>
	<path style="fill:#EAC36E;" d="M279.141,281.175h-46.261v-84.719h46.261V281.175z M244.028,270.028h23.965v-62.424h-23.965V270.028
		z"/>
	<path style="fill:#EAC36E;" d="M364.837,281.175h-46.262v-84.719h46.262V281.175z M329.723,270.028h23.967v-62.424h-23.967V270.028
		z"/>
</g>
<circle style="fill:#4EBFED;" cx="255.17" cy="137.117" r="25.081"/>
<path style="fill:#EAC36E;" d="M255.173,168.332c-17.21,0-31.213-14.003-31.213-31.213s14.003-31.213,31.213-31.213
	s31.213,14.003,31.213,31.213S272.383,168.332,255.173,168.332z M255.173,118.17c-10.449,0-18.95,8.5-18.95,18.95
	c0,10.45,8.501,18.95,18.95,18.95c10.449,0,18.95-8.5,18.95-18.95S265.621,118.17,255.173,118.17z"/>
<circle style="fill:#415E72;" cx="245.305" cy="390.493" r="10.703"/>
<g>
</g>
<g>
</g>
<g>
</g>
<g>
</g>
<g>
</g>
<g>
</g>
<g>
</g>
<g>
</g>
<g>
</g>
<g>
</g>
<g>
</g>
<g>
</g>
<g>
</g>
<g>
</g>
<g>
</g>
</svg>
