<?xml version="1.0" encoding="iso-8859-1"?>
<!-- Generator: Adobe Illustrator 19.0.0, SVG Export Plug-In . SVG Version: 6.00 Build 0)  -->
<svg version="1.1" id="Layer_1" xmlns="http://www.w3.org/2000/svg" xmlns:xlink="http://www.w3.org/1999/xlink" x="0px" y="0px"
	 viewBox="0 0 512.002 512.002" style="enable-background:new 0 0 512.002 512.002;" xml:space="preserve">
<path style="fill:#FF6F52;" d="M368.537,0H143.465c-4.578,0-8.29,3.711-8.29,8.29v62.685h241.651V8.29
	C376.827,3.711,373.115,0,368.537,0z"/>
<polyline style="fill:#EAC36E;" points="411.477,406.493 411.477,512 100.525,512 100.525,406.493 "/>
<rect x="197.302" y="406.498" style="fill:#4EBFED;" width="117.387" height="105.505"/>
<rect x="197.302" y="406.498" style="fill:#3BA4BC;" width="117.387" height="31.266"/>
<polyline style="fill:#FCD577;" points="100.525,370.287 100.525,63.285 411.477,63.285 411.477,370.287 "/>
<polyline style="fill:#CFDCE5;" points="325.935,370.282 77.104,370.282 77.104,406.499 434.898,406.499 434.898,370.282 
	357.157,370.282 "/>
<g>
	<rect x="167.336" y="406.498" style="fill:#FCD577;" width="29.972" height="105.505"/>
	<rect x="314.701" y="406.498" style="fill:#FCD577;" width="29.972" height="105.505"/>
</g>
<g>
	<rect x="167.336" y="406.498" style="fill:#EAC36E;" width="29.972" height="19.814"/>
	<rect x="314.701" y="406.498" style="fill:#EAC36E;" width="29.972" height="19.814"/>
</g>
<rect x="246.936" y="406.498" style="fill:#FCD577;" width="18.132" height="105.505"/>
<rect x="246.936" y="406.498" style="fill:#EAC36E;" width="18.132" height="19.814"/>
<g>
	<rect x="100.525" y="101.153" style="fill:#4EBFED;" width="310.954" height="41.208"/>
	<rect x="100.525" y="195.754" style="fill:#4EBFED;" width="310.954" height="41.208"/>
	<rect x="100.525" y="290.355" style="fill:#4EBFED;" width="310.954" height="41.208"/>
</g>
<g>
	<path style="fill:#EAC36E;" d="M411.477,107.201V95.113H100.524v12.088h36.125v29.124h-36.125v12.088h310.952v-12.088h-36.125
		v-29.124H411.477z M262.046,107.201h44.565v29.124h-44.565V107.201z M249.958,136.324h-44.566v-29.124h44.566V136.324z
		 M148.737,107.201h44.565v29.124h-44.565C148.737,136.324,148.737,107.201,148.737,107.201z M363.264,136.324h-44.565v-29.124
		h44.565V136.324z"/>
	<path style="fill:#EAC36E;" d="M100.524,201.801h36.125v29.124h-36.125v12.088h310.952v-12.088h-36.125v-29.124h36.125v-12.088
		H100.524V201.801z M148.737,201.801h44.565v29.124h-44.565C148.737,230.924,148.737,201.801,148.737,201.801z M249.958,230.923
		h-44.566v-29.124h44.566V230.923z M262.046,201.801h44.565v29.124h-44.565V201.801z M363.264,230.923h-44.565v-29.124h44.565
		V230.923z"/>
	<path style="fill:#EAC36E;" d="M100.524,296.4h36.125v29.124h-36.125v12.088h310.952v-12.088h-36.125V296.4h36.125v-12.088H100.524
		V296.4z M148.737,296.4h44.565v29.124h-44.565C148.737,325.523,148.737,296.4,148.737,296.4z M249.958,325.523h-44.566V296.4
		h44.566V325.523z M262.046,296.4h44.565v29.124h-44.565V296.4z M363.264,325.523h-44.565V296.4h44.565V325.523z"/>
</g>
<g>
	<polygon style="fill:#CFDCE5;" points="176.858,14.564 182.029,25.042 193.592,26.723 185.225,34.879 187.2,46.395 176.858,40.958 
		166.514,46.395 168.489,34.879 160.122,26.723 171.685,25.042 	"/>
	<polygon style="fill:#CFDCE5;" points="216.429,14.564 221.6,25.042 233.164,26.723 224.796,34.879 226.772,46.395 216.429,40.958 
		206.087,46.395 208.062,34.879 199.694,26.723 211.258,25.042 	"/>
	<polygon style="fill:#CFDCE5;" points="256.001,14.564 261.172,25.042 272.735,26.723 264.368,34.879 266.343,46.395 
		256.001,40.958 245.658,46.395 247.633,34.879 239.266,26.723 250.829,25.042 	"/>
	<polygon style="fill:#CFDCE5;" points="295.572,14.564 300.745,25.042 312.308,26.723 303.941,34.879 305.916,46.395 
		295.572,40.958 285.23,46.395 287.205,34.879 278.837,26.723 290.401,25.042 	"/>
	<polygon style="fill:#CFDCE5;" points="335.145,14.564 340.316,25.042 351.88,26.723 343.512,34.879 345.487,46.395 
		335.145,40.958 324.802,46.395 326.777,34.879 318.41,26.723 329.974,25.042 	"/>
</g>
<g>
</g>
<g>
</g>
<g>
</g>
<g>
</g>
<g>
</g>
<g>
</g>
<g>
</g>
<g>
</g>
<g>
</g>
<g>
</g>
<g>
</g>
<g>
</g>
<g>
</g>
<g>
</g>
<g>
</g>
</svg>
