<?xml version="1.0" encoding="iso-8859-1"?>
<!-- Generator: Adobe Illustrator 19.0.0, SVG Export Plug-In . SVG Version: 6.00 Build 0)  -->
<svg version="1.1" id="Layer_1" xmlns="http://www.w3.org/2000/svg" xmlns:xlink="http://www.w3.org/1999/xlink" x="0px" y="0px"
	 viewBox="0 0 512 512" style="enable-background:new 0 0 512 512;" xml:space="preserve">
<polyline style="fill:#FF6F52;" points="49.595,48.109 49.595,512 462.405,512 462.405,80.878 "/>
<polyline style="fill:#E25749;" points="49.595,48.109 49.595,109.196 462.405,109.196 462.405,52.424 "/>
<polyline style="fill:#FCD577;" points="297.75,385.282 297.75,296.438 214.67,296.438 214.67,439.616 297.75,439.616 
	297.75,418.006 "/>
<polygon style="fill:#E25749;" points="303.804,435.655 291.7,435.655 291.7,302.49 220.722,302.49 220.722,435.655 
	208.618,435.655 208.618,290.386 303.804,290.386 "/>
<g>
	<rect x="336.806" y="296.44" style="fill:#4EBFED;" width="83.082" height="98.103"/>
	<rect x="92.112" y="296.44" style="fill:#4EBFED;" width="83.082" height="98.103"/>
	<polygon style="fill:#4EBFED;" points="336.806,137.457 214.459,137.457 214.459,235.553 336.806,235.553 419.888,235.553 
		419.888,137.457 	"/>
	<rect x="92.112" y="137.453" style="fill:#4EBFED;" width="83.082" height="98.103"/>
</g>
<rect x="194.996" y="435.66" style="fill:#CFDCE5;" width="119.612" height="57.252"/>
<rect x="194.996" y="464.286" style="fill:#BAC6CC;" width="119.612" height="28.63"/>
<rect x="171.72" y="473.824" style="fill:#CFDCE5;" width="166.164" height="38.172"/>
<g>
	<path style="fill:#E25749;" d="M330.754,400.587h95.186V290.386h-95.186V400.587z M378.868,388.483v-47.811h34.969v47.811H378.868z
		 M413.836,328.57h-34.969v-26.078h34.969L413.836,328.57L413.836,328.57z M342.858,302.49h23.905v85.993h-23.905V302.49z"/>
	<path style="fill:#E25749;" d="M86.06,400.587h95.186V290.386H86.06V400.587z M134.173,388.483v-47.811h34.968v47.811H134.173z
		 M169.142,328.57h-34.969v-26.078h34.969V328.57z M98.164,302.49h23.905v85.993H98.164V302.49z"/>
	<path style="fill:#E25749;" d="M208.407,131.405v110.201H425.94V131.405H208.407z M413.836,170.859h-55.315v-27.351h55.315V170.859
		z M287.93,170.859v-27.351h58.487v27.351H287.93z M346.417,182.963v46.538H287.93v-46.538H346.417z M275.826,143.509v27.351
		h-55.315v-27.351H275.826z M220.511,182.963h55.315v46.538h-55.315V182.963z M358.521,229.501v-46.538h55.315v46.538H358.521z"/>
	<path style="fill:#E25749;" d="M86.06,241.605h95.186V131.404H86.06V241.605z M134.173,229.501V181.69h34.968v47.811H134.173z
		 M169.142,169.586h-34.969v-26.078h34.969V169.586z M98.164,143.509h23.905v85.993H98.164V143.509z"/>
</g>
<polygon style="fill:#FCD577;" points="462.401,0 49.599,0 5.461,90.501 506.539,90.501 "/>
<circle style="fill:#415E72;" cx="237.408" cy="372.223" r="8.775"/>
<g>
</g>
<g>
</g>
<g>
</g>
<g>
</g>
<g>
</g>
<g>
</g>
<g>
</g>
<g>
</g>
<g>
</g>
<g>
</g>
<g>
</g>
<g>
</g>
<g>
</g>
<g>
</g>
<g>
</g>
</svg>
