<?xml version="1.0" encoding="iso-8859-1"?>
<!-- Generator: Adobe Illustrator 19.0.0, SVG Export Plug-In . SVG Version: 6.00 Build 0)  -->
<svg version="1.1" id="Layer_1" xmlns="http://www.w3.org/2000/svg" xmlns:xlink="http://www.w3.org/1999/xlink" x="0px" y="0px"
	 viewBox="0 0 509.287 509.287" style="enable-background:new 0 0 509.287 509.287;" xml:space="preserve">
<circle style="fill:#4F5565;" cx="254.644" cy="254.644" r="254.644"/>
<circle style="fill:#FBD303;" cx="344.498" cy="342.464" r="116.302"/>
<circle style="fill:#F8B517;" cx="344.498" cy="342.464" r="100.366"/>
<circle style="fill:#FBD303;" cx="344.498" cy="342.464" r="78.326"/>
<path style="fill:#FCFCFD;" d="M370.607,361.113c0-14.241-11.528-26.109-26.109-26.109c-6.103,0-11.189-5.086-11.189-11.189
	c0-6.103,5.086-11.189,11.189-11.189c3.052,0,6.103,1.356,8.138,3.391c2.713,3.052,7.46,3.052,10.511,0.339
	c3.052-2.713,3.052-7.46,0.339-10.511c-3.052-3.391-7.121-5.764-11.528-7.121v-5.086c0-4.069-3.391-7.46-7.46-7.46
	c-4.069,0-7.46,3.391-7.46,7.46v5.086c-10.85,3.052-18.649,13.224-18.649,24.752c0,14.241,11.528,26.109,26.109,26.109
	c6.103,0,11.189,5.086,11.189,11.189c0,6.103-5.086,11.189-11.189,11.189c-3.052,0-6.103-1.356-8.138-3.391
	c-2.713-3.052-7.46-3.052-10.511-0.339c-3.052,2.713-3.052,7.46-0.339,10.511c3.052,3.391,7.121,5.764,11.528,7.121v5.086
	c0,4.069,3.391,7.46,7.46,7.46c4.069,0,7.46-3.391,7.46-7.46v-5.086C362.808,382.813,370.607,372.98,370.607,361.113z"/>
<circle style="fill:#FBD303;" cx="164.789" cy="162.755" r="116.302"/>
<circle style="fill:#F8B517;" cx="164.789" cy="162.755" r="100.366"/>
<circle style="fill:#FBD303;" cx="164.789" cy="162.755" r="78.326"/>
<g>
	<path style="fill:#FCFCFD;" d="M192.932,112.233c-5.425-2.034-11.189-3.052-16.954-3.052c-20.683,0-38.315,13.902-45.775,33.229
		h-12.546c-4.069,0-7.46,3.391-7.46,7.46s3.391,7.46,7.46,7.46h9.155c0,1.695-0.339,3.73-0.339,5.425c0,1.695,0,3.73,0.339,5.425
		h-9.155c-4.069,0-7.46,3.391-7.46,7.46s3.391,7.46,7.46,7.46h12.546c7.46,19.327,25.091,33.229,45.775,33.229
		c4.747,0,9.494-0.678,13.902-2.034c4.069-1.356,6.103-5.425,4.747-9.155c-1.356-4.069-5.425-6.103-9.155-4.747
		c-3.052,1.017-6.103,1.356-9.494,1.356c-12.546,0-23.396-7.46-29.499-18.31h31.534c4.069,0,7.46-3.391,7.46-7.46
		s-3.391-7.46-7.46-7.46h-36.281c-0.339-1.695-0.339-3.73-0.339-5.425c0-1.695,0-3.73,0.339-5.425h36.281
		c4.069,0,7.46-3.391,7.46-7.46s-3.391-7.46-7.46-7.46h-31.534c6.103-10.85,16.954-18.31,29.499-18.31
		c4.069,0,7.799,0.678,11.528,2.034c3.73,1.356,8.138-0.339,9.494-4.069C198.697,118.336,196.662,113.928,192.932,112.233z"/>
	<path style="fill:#FCFCFD;" d="M325.849,74.257l30.856-18.31l-11.189-18.649l-65.102,38.993l38.993,64.763l18.649-11.189
		l-21.701-35.942c50.183,19.666,89.176,62.728,103.078,114.946l21.023-5.425C424.858,144.784,381.457,96.636,325.849,74.257z"/>
	<path style="fill:#FCFCFD;" d="M180.726,379.423l20.683,34.925c-55.947-18.31-98.67-64.085-112.572-122.066l-21.023,5.086
		c15.597,64.763,63.068,115.963,125.457,136.985l-31.195,18.988l11.189,18.649l64.424-38.993l-38.315-64.763L180.726,379.423z"/>
</g>
<g>
</g>
<g>
</g>
<g>
</g>
<g>
</g>
<g>
</g>
<g>
</g>
<g>
</g>
<g>
</g>
<g>
</g>
<g>
</g>
<g>
</g>
<g>
</g>
<g>
</g>
<g>
</g>
<g>
</g>
</svg>
