<?xml version="1.0" encoding="iso-8859-1"?>
<!-- Generator: Adobe Illustrator 19.0.0, SVG Export Plug-In . SVG Version: 6.00 Build 0)  -->
<svg version="1.1" id="Capa_1" xmlns="http://www.w3.org/2000/svg" xmlns:xlink="http://www.w3.org/1999/xlink" x="0px" y="0px"
	 viewBox="0 0 480 480" style="enable-background:new 0 0 480 480;" xml:space="preserve">
<g>
	<polygon style="fill:#BF515A;" points="161.633,63.129 151.837,68.571 151.837,58.775 53.878,58.775 4.898,146.939 14.694,146.939 
		161.633,146.939 	"/>
	<polygon style="fill:#BF515A;" points="426.122,58.775 328.163,58.775 328.163,68.571 318.367,63.129 318.367,146.939 
		465.306,146.939 475.102,146.939 	"/>
	<path style="fill:#F2D057;" d="M161.633,146.939H14.694v293.878h146.939V146.939z M122.449,323.265v19.592v9.796v39.184v9.796
		h-9.796h-48.98h-9.796v-9.796v-39.184v-9.796v-19.592v-9.796h9.796h48.98h9.796V323.265z M122.449,195.918v19.592v9.796v39.184
		v9.796h-9.796h-48.98h-9.796v-9.796v-39.184v-9.796v-19.592v-9.796h9.796h48.98h9.796V195.918z"/>
	<path style="fill:#F2D057;" d="M318.367,440.816h146.939V146.939H318.367V440.816z M357.551,264.49v-39.184v-9.796v-19.592v-9.796
		h9.796h48.98h9.796v9.796v19.592v9.796v39.184v9.796h-9.796h-48.98h-9.796V264.49z M357.551,391.837v-39.184v-9.796v-19.592v-9.796
		h9.796h48.98h9.796v9.796v19.592v9.796v39.184v9.796h-9.796h-48.98h-9.796V391.837z"/>
	<path style="fill:#E9A868;" d="M161.633,63.129v83.81v293.878h39.184V323.265h78.367v117.551h39.184V146.939V63.129L240,19.592
		L161.633,63.129z M279.184,195.918v19.592v9.796v39.184v9.796h-9.796h-9.796h-48.98h-9.796v-9.796v-39.184v-9.796v-19.592v-9.796
		h9.796h58.776h9.796V195.918z M269.388,107.755c0,16.23-13.157,29.388-29.388,29.388s-29.388-13.157-29.388-29.388
		S223.77,78.367,240,78.367S269.388,91.525,269.388,107.755z"/>
	<polygon style="fill:#95FFFF;" points="63.673,264.49 102.857,264.49 63.673,225.306 	"/>
	<polygon style="fill:#80D7F0;" points="102.857,264.49 112.653,264.49 112.653,225.306 63.673,225.306 	"/>
	<rect x="63.673" y="195.918" style="fill:#6EB1E2;" width="48.98" height="19.592"/>
	<path style="fill:#695A69;" d="M63.673,186.122h-9.796v9.796v19.592v9.796v39.184v9.796h9.796h48.98h9.796v-9.796v-39.184v-9.796
		v-19.592v-9.796h-9.796H63.673z M112.653,264.49h-9.796H63.673v-39.184h48.98V264.49z M112.653,215.51h-48.98v-19.592h48.98V215.51
		z"/>
	<polygon style="fill:#95FFFF;" points="210.612,264.49 249.796,264.49 210.612,225.306 	"/>
	<rect x="210.612" y="195.918" style="fill:#6EB1E2;" width="58.776" height="19.592"/>
	<polygon style="fill:#80D7F0;" points="210.612,225.306 249.796,264.49 269.388,264.49 269.388,225.306 259.592,225.306 	"/>
	<path style="fill:#695A69;" d="M210.612,186.122h-9.796v9.796v19.592v9.796v39.184v9.796h9.796h48.98h9.796h9.796v-9.796v-39.184
		v-9.796v-19.592v-9.796h-9.796H210.612z M269.388,264.49h-19.592h-39.184v-39.184h48.98h9.796V264.49z M269.388,215.51h-58.776
		v-19.592h58.776V215.51z"/>
	<polygon style="fill:#944851;" points="279.184,323.265 200.816,323.265 200.816,440.816 200.816,480 279.184,480 279.184,440.816 
			"/>
	<rect x="14.694" y="440.816" style="fill:#E9A868;" width="146.939" height="39.184"/>
	<rect x="318.367" y="440.816" style="fill:#E9A868;" width="146.939" height="39.184"/>
	<rect x="279.184" y="440.816" style="fill:#D6805C;" width="39.184" height="39.184"/>
	<rect x="161.633" y="440.816" style="fill:#D6805C;" width="39.184" height="39.184"/>
	<polygon style="fill:#944851;" points="161.633,63.129 240,19.592 318.367,63.129 328.163,68.571 328.163,58.775 328.163,48.979 
		240,0 151.837,48.979 151.837,58.775 151.837,68.571 	"/>
	<path style="fill:#695A69;" d="M210.612,107.755c0,16.23,13.157,29.388,29.388,29.388s29.388-13.157,29.388-29.388
		S256.23,78.367,240,78.367S210.612,91.525,210.612,107.755z M259.592,107.755c0,10.82-8.772,19.592-19.592,19.592
		c-10.82,0-19.592-8.771-19.592-19.592c0-7.082,3.77-13.268,9.401-16.709c2.972-1.818,6.453-2.883,10.191-2.883
		C250.82,88.163,259.592,96.935,259.592,107.755z"/>
	<path style="fill:#95FFFF;" d="M226.148,93.903c1.095-1.096,2.332-2.045,3.661-2.857c-5.63,3.442-9.401,9.627-9.401,16.709
		c0,10.82,8.772,19.592,19.592,19.592c10.82,0,19.592-8.771,19.592-19.592c0,5.41-2.193,10.308-5.74,13.852L226.148,93.903z"/>
	<path style="fill:#95FFFF;" d="M259.592,107.755c0-10.82-8.772-19.592-19.592-19.592C250.82,88.163,259.592,96.936,259.592,107.755
		z"/>
	<path style="fill:#6EB1E2;" d="M240,88.163c-3.738,0-7.219,1.065-10.191,2.883c-1.329,0.813-2.566,1.761-3.661,2.857l27.704,27.704
		c3.547-3.544,5.74-8.442,5.74-13.852C259.592,96.936,250.82,88.163,240,88.163z"/>
	<polygon style="fill:#95FFFF;" points="367.347,225.306 367.347,264.49 406.531,264.49 	"/>
	<polygon style="fill:#80D7F0;" points="416.327,264.49 416.327,225.306 367.347,225.306 406.531,264.49 	"/>
	<rect x="367.347" y="195.918" style="fill:#6EB1E2;" width="48.98" height="19.592"/>
	<path style="fill:#695A69;" d="M416.327,274.286h9.796v-9.796v-39.184v-9.796v-19.592v-9.796h-9.796h-48.98h-9.796v9.796v19.592
		v9.796v39.184v9.796h9.796H416.327z M367.347,195.918h48.98v19.592h-48.98V195.918z M367.347,225.306h48.98v39.184h-9.796h-39.184
		V225.306z"/>
	<polygon style="fill:#95FFFF;" points="63.673,391.837 102.857,391.837 63.673,352.653 	"/>
	<polygon style="fill:#80D7F0;" points="102.857,391.837 112.653,391.837 112.653,352.653 63.673,352.653 	"/>
	<rect x="63.673" y="323.265" style="fill:#6EB1E2;" width="48.98" height="19.592"/>
	<path style="fill:#695A69;" d="M63.673,313.469h-9.796v9.796v19.592v9.796v39.184v9.796h9.796h48.98h9.796v-9.796v-39.184v-9.796
		v-19.592v-9.796h-9.796H63.673z M112.653,391.837h-9.796H63.673v-39.184h48.98V391.837z M112.653,342.857h-48.98v-19.592h48.98
		V342.857z"/>
	<polygon style="fill:#95FFFF;" points="367.347,352.653 367.347,391.837 406.531,391.837 	"/>
	<polygon style="fill:#80D7F0;" points="416.327,391.837 416.327,352.653 367.347,352.653 406.531,391.837 	"/>
	<rect x="367.347" y="323.265" style="fill:#6EB1E2;" width="48.98" height="19.592"/>
	<path style="fill:#695A69;" d="M416.327,401.633h9.796v-9.796v-39.184v-9.796v-19.592v-9.796h-9.796h-48.98h-9.796v9.796v19.592
		v9.796v39.184v9.796h9.796H416.327z M367.347,323.265h48.98v19.592h-48.98V323.265z M367.347,352.653h48.98v39.184h-9.796h-39.184
		V352.653z"/>
</g>
<g>
</g>
<g>
</g>
<g>
</g>
<g>
</g>
<g>
</g>
<g>
</g>
<g>
</g>
<g>
</g>
<g>
</g>
<g>
</g>
<g>
</g>
<g>
</g>
<g>
</g>
<g>
</g>
<g>
</g>
</svg>
