<?xml version="1.0" encoding="iso-8859-1"?>
<!-- Generator: Adobe Illustrator 19.0.0, SVG Export Plug-In . SVG Version: 6.00 Build 0)  -->
<svg version="1.1" id="Layer_1" xmlns="http://www.w3.org/2000/svg" xmlns:xlink="http://www.w3.org/1999/xlink" x="0px" y="0px"
	 viewBox="0 0 512 512" style="enable-background:new 0 0 512 512;" xml:space="preserve">
<rect x="38.538" y="193.608" style="fill:#CFDCE5;" width="434.925" height="304.084"/>
<rect x="38.538" y="185.249" style="fill:#BAC6CC;" width="434.925" height="41.067"/>
<polygon style="fill:#FCD577;" points="512,193.608 0,193.608 45.891,97.052 62.84,61.398 449.16,61.398 "/>
<polygon style="fill:#EAC36E;" points="105.509,61.398 91.843,120.919 45.891,97.052 62.84,61.398 "/>
<rect x="91.843" y="26.143" style="fill:#FF6F52;" width="82.381" height="94.775"/>
<rect x="91.843" y="26.143" style="fill:#E25749;" width="82.381" height="42.838"/>
<rect x="86.355" y="14.308" style="fill:#CFDCE5;" width="93.357" height="32.856"/>
<rect x="80.94" y="259.029" style="fill:#4EBFED;" width="142.956" height="124.784"/>
<polygon style="fill:#92DDF4;" points="223.896,259.035 223.896,383.818 124.154,383.818 166.059,259.035 "/>
<rect x="288.104" y="259.029" style="fill:#4EBFED;" width="142.956" height="124.784"/>
<polygon style="fill:#92DDF4;" points="431.062,259.035 431.062,383.818 331.321,383.818 373.225,259.035 "/>
<g>
	<path style="fill:#BAC6CC;" d="M71.853,392.898h161.128V249.943H71.853C71.853,249.943,71.853,392.898,71.853,392.898z
		 M90.026,328.689h55.123v46.037H90.026V328.689z M159.687,374.726v-46.037h55.123v46.037H159.687z M214.809,314.152h-55.123
		v-46.037h55.123V314.152z M145.149,268.115v46.037H90.026v-46.037H145.149z"/>
	<path style="fill:#BAC6CC;" d="M279.018,249.943v142.956h161.128V249.943H279.018z M421.974,314.152h-55.123v-46.037h55.123
		V314.152z M352.313,268.115v46.037h-55.123v-46.037H352.313z M297.191,328.689h55.123v46.037h-55.123V328.689z M366.851,374.726
		v-46.037h55.123v46.037H366.851z"/>
	<rect x="270.938" y="405.013" style="fill:#BAC6CC;" width="177.289" height="30.287"/>
	<rect x="63.773" y="405.013" style="fill:#BAC6CC;" width="177.289" height="30.287"/>
</g>
<g>
	<rect x="270.938" y="392.898" style="fill:#FF6F52;" width="177.289" height="30.287"/>
	<rect x="63.773" y="392.898" style="fill:#FF6F52;" width="177.289" height="30.287"/>
</g>
<g>
</g>
<g>
</g>
<g>
</g>
<g>
</g>
<g>
</g>
<g>
</g>
<g>
</g>
<g>
</g>
<g>
</g>
<g>
</g>
<g>
</g>
<g>
</g>
<g>
</g>
<g>
</g>
<g>
</g>
</svg>
