<?xml version="1.0" encoding="iso-8859-1"?>
<!-- Generator: Adobe Illustrator 19.0.0, SVG Export Plug-In . SVG Version: 6.00 Build 0)  -->
<svg version="1.1" id="Layer_1" xmlns="http://www.w3.org/2000/svg" xmlns:xlink="http://www.w3.org/1999/xlink" x="0px" y="0px"
	 viewBox="0 0 512 512" style="enable-background:new 0 0 512 512;" xml:space="preserve">
<polygon style="fill:#CFDCE5;" points="469.117,284.154 353.223,284.154 354.677,259.273 364.459,91.666 457.881,91.666 
	467.663,259.273 "/>
<polygon style="fill:#BAC6CC;" points="364.464,91.662 393.089,91.662 388.729,284.15 353.227,284.15 "/>
<polygon style="fill:#FF6F52;" points="462.425,169.579 359.915,169.579 362.207,130.293 460.133,130.293 "/>
<polygon style="fill:#E25749;" points="392.208,130.293 391.318,169.579 359.915,169.579 362.207,130.293 "/>
<polygon style="fill:#CFDCE5;" points="1.637,284.154 145.023,191.837 145.023,284.154 288.41,191.837 288.41,284.154 
	510.363,284.154 510.363,512 1.637,512 "/>
<polygon style="fill:#BAC6CC;" points="469.117,284.154 353.223,284.154 354.677,259.273 467.663,259.273 "/>
<g>
	<rect x="42.884" y="335.227" style="fill:#4EBFED;" width="145.345" height="60.893"/>
	<rect x="233.411" y="335.227" style="fill:#4EBFED;" width="145.345" height="60.893"/>
</g>
<g>
	<path style="fill:#BAC6CC;" d="M36.337,402.661h158.447v-73.986H36.337V402.661z M94.61,389.565V341.77h41.902v47.795H94.61z
		 M181.688,389.565h-32.082V341.77h32.082V389.565z M49.432,341.77h32.082v47.795H49.432V341.77z"/>
	<path style="fill:#BAC6CC;" d="M226.864,328.675v73.986h158.447v-73.986L226.864,328.675L226.864,328.675z M327.038,341.77v47.795
		h-41.902V341.77H327.038z M239.96,341.77h32.082v47.795H239.96V341.77z M372.216,389.565h-32.082V341.77h32.082V389.565z"/>
</g>
<path style="fill:#415E72;" d="M419.029,0H94.937C78.123,0,64.492,13.631,64.492,30.445c0,5.048,1.236,9.806,3.41,13.996H35.03
	c-16.814,0-30.445,13.631-30.445,30.445l0,0c0,16.814,13.631,30.445,30.445,30.445h121.78c16.814,0,30.445-13.631,30.445-30.445l0,0
	c0-5.048-1.236-9.806-3.41-13.996H419.03c16.814,0,30.445-13.631,30.445-30.445C449.474,13.631,435.843,0,419.029,0z"/>
<g>
</g>
<g>
</g>
<g>
</g>
<g>
</g>
<g>
</g>
<g>
</g>
<g>
</g>
<g>
</g>
<g>
</g>
<g>
</g>
<g>
</g>
<g>
</g>
<g>
</g>
<g>
</g>
<g>
</g>
</svg>
