<?xml version="1.0" encoding="iso-8859-1"?>
<!-- Generator: Adobe Illustrator 19.0.0, SVG Export Plug-In . SVG Version: 6.00 Build 0)  -->
<svg version="1.1" id="Layer_1" xmlns="http://www.w3.org/2000/svg" xmlns:xlink="http://www.w3.org/1999/xlink" x="0px" y="0px"
	 viewBox="0 0 512.002 512.002" style="enable-background:new 0 0 512.002 512.002;" xml:space="preserve">
<polyline style="fill:#CFDCE5;" points="407.497,317.364 415.404,76.061 476.737,76.061 478.001,114.739 479.389,157.101 
	484.645,317.364 "/>
<polygon style="fill:#BAC6CC;" points="415.404,76.061 406.469,348.637 438.076,348.637 435.158,76.061 "/>
<polygon style="fill:#CFDCE5;" points="363.095,44.792 301.771,44.792 292.835,317.368 372.03,317.368 "/>
<polygon style="fill:#BAC6CC;" points="301.771,44.792 292.835,317.368 324.442,317.368 321.524,44.792 "/>
<polygon style="fill:#FF6F52;" points="365.766,125.823 299.119,125.823 300.506,83.462 364.379,83.462 "/>
<polygon style="fill:#E25749;" points="322.386,125.823 299.119,125.823 300.506,83.462 321.935,83.462 "/>
<polygon style="fill:#FF6F52;" points="479.409,157.098 412.763,157.098 414.15,114.737 478.023,114.737 "/>
<polygon style="fill:#E25749;" points="436.02,157.092 412.753,157.092 414.14,114.732 435.569,114.732 "/>
<g>
	<rect x="46.509" y="280.617" style="fill:#415E72;" width="58.935" height="43.51"/>
	<rect x="169.668" y="280.617" style="fill:#415E72;" width="58.935" height="43.51"/>
</g>
<rect x="30.852" y="248.035" style="fill:#536B7C;" width="90.245" height="40.524"/>
<rect x="30.852" y="248.035" style="fill:#415E72;" width="14.18" height="40.524"/>
<rect x="154.011" y="248.035" style="fill:#536B7C;" width="90.245" height="40.524"/>
<rect y="316.186" style="fill:#CFDCE5;" width="512.002" height="151.024"/>
<rect x="42.359" y="358.547" style="fill:#4EBFED;" width="427.281" height="40.524"/>
<g>
	<path style="fill:#415E72;" d="M36.433,352.616v52.371h439.133v-52.371H36.433z M185.494,364.468h64.579v28.666h-64.579
		L185.494,364.468L185.494,364.468z M173.642,393.135h-64.579v-28.666h64.579L173.642,393.135L173.642,393.135z M261.925,364.468
		h64.579v28.666h-64.579V364.468z M338.358,364.468h64.579v28.666h-64.579V364.468z M48.286,364.468H97.21v28.666H48.286V364.468z
		 M463.714,393.135H414.79v-28.666h48.925V393.135z"/>
	<rect x="154.011" y="248.035" style="fill:#415E72;" width="14.18" height="40.524"/>
</g>
<g>
</g>
<g>
</g>
<g>
</g>
<g>
</g>
<g>
</g>
<g>
</g>
<g>
</g>
<g>
</g>
<g>
</g>
<g>
</g>
<g>
</g>
<g>
</g>
<g>
</g>
<g>
</g>
<g>
</g>
</svg>
