<?xml version="1.0" encoding="iso-8859-1"?>
<!-- Generator: Adobe Illustrator 19.0.0, SVG Export Plug-In . SVG Version: 6.00 Build 0)  -->
<svg version="1.1" id="Layer_1" xmlns="http://www.w3.org/2000/svg" xmlns:xlink="http://www.w3.org/1999/xlink" x="0px" y="0px"
	 viewBox="0 0 512 512" style="enable-background:new 0 0 512 512;" xml:space="preserve">
<rect x="27.931" y="131.069" style="fill:#FF6F52;" width="456.155" height="371.589"/>
<rect x="27.931" y="124.738" style="fill:#E25749;" width="456.155" height="24.057"/>
<polyline style="fill:#FCD577;" points="176.249,131.057 53.548,131.057 0,131.057 53.548,9.342 458.452,9.342 512,131.057 
	458.452,131.057 335.751,131.057 "/>
<polyline style="fill:#CFDCE5;" points="388.283,183.592 256,51.309 123.717,183.592 "/>
<polyline style="fill:#FF6F52;" points="388.283,183.592 256,51.309 123.717,183.592 "/>
<polygon style="fill:#E25749;" points="381.568,205.429 256,79.862 130.431,205.429 117.002,176.878 256,53.003 394.998,176.878 "/>
<polygon style="fill:#EAC36E;" points="381.568,190.307 256,64.739 130.431,190.307 117.002,176.878 256,37.88 394.998,176.878 "/>
<rect x="166.726" y="416.319" style="fill:#CFDCE5;" width="178.54" height="50.2"/>
<g>
	<rect x="166.726" y="446.479" style="fill:#BAC6CC;" width="178.54" height="25.1"/>
	<rect x="202.191" y="226.042" style="fill:#BAC6CC;" width="107.623" height="190.277"/>
</g>
<polygon style="fill:#E25749;" points="316.145,416.315 303.483,416.315 303.483,232.376 208.517,232.376 208.517,416.315 
	195.855,416.315 195.855,219.714 316.145,219.714 "/>
<g>
	<rect x="357.218" y="254.872" style="fill:#4EBFED;" width="80.721" height="111.472"/>
	<rect x="74.057" y="254.872" style="fill:#4EBFED;" width="80.721" height="111.472"/>
</g>
<g>
	<path style="fill:#E25749;" d="M350.89,248.543v124.133h93.382V248.543H350.89z M431.611,261.204v31.542h-68.059v-31.542H431.611z
		 M363.552,360.015V305.41h68.059v54.605H363.552z"/>
	<path style="fill:#E25749;" d="M67.728,372.676h93.382V248.543H67.728V372.676z M80.389,360.015V305.41h68.059v54.605H80.389z
		 M148.447,261.204v31.542H80.389v-31.542H148.447z"/>
</g>
<circle style="fill:#314A5F;" cx="232.452" cy="327.233" r="8.863"/>
<rect x="139.403" y="459.482" style="fill:#CFDCE5;" width="233.199" height="43.163"/>
<g>
</g>
<g>
</g>
<g>
</g>
<g>
</g>
<g>
</g>
<g>
</g>
<g>
</g>
<g>
</g>
<g>
</g>
<g>
</g>
<g>
</g>
<g>
</g>
<g>
</g>
<g>
</g>
<g>
</g>
</svg>
