<?xml version="1.0" encoding="iso-8859-1"?>
<!-- Generator: Adobe Illustrator 19.0.0, SVG Export Plug-In . SVG Version: 6.00 Build 0)  -->
<svg version="1.1" id="Layer_1" xmlns="http://www.w3.org/2000/svg" xmlns:xlink="http://www.w3.org/1999/xlink" x="0px" y="0px"
	 viewBox="0 0 512 512" style="enable-background:new 0 0 512 512;" xml:space="preserve">
<rect x="38.538" y="193.608" style="fill:#CFDCE5;" width="434.925" height="304.084"/>
<rect x="38.538" y="185.249" style="fill:#BAC6CC;" width="434.925" height="41.067"/>
<polygon style="fill:#FCD577;" points="512,193.608 0,193.608 45.891,97.052 62.84,61.398 449.16,61.398 "/>
<polygon style="fill:#EAC36E;" points="105.509,61.398 91.843,120.919 45.891,97.052 62.84,61.398 "/>
<rect x="91.843" y="26.143" style="fill:#FF6F52;" width="82.381" height="94.775"/>
<rect x="91.843" y="26.143" style="fill:#E25749;" width="82.381" height="35.254"/>
<rect x="86.355" y="14.308" style="fill:#CFDCE5;" width="93.357" height="32.856"/>
<rect x="96.689" y="259.029" style="fill:#4EBFED;" width="142.956" height="124.784"/>
<polygon style="fill:#92DDF4;" points="239.645,259.035 239.645,383.818 139.903,383.818 181.808,259.035 "/>
<g>
	<path style="fill:#BAC6CC;" d="M87.603,392.898h161.128V249.943H87.603V392.898z M105.775,328.689h55.123v46.037h-55.123V328.689z
		 M175.436,374.726v-46.037h55.123v46.037H175.436z M230.559,314.152h-55.123v-46.037h55.123V314.152z M160.898,268.115v46.037
		h-55.123v-46.037H160.898z"/>
	<rect x="79.522" y="402.59" style="fill:#BAC6CC;" width="177.289" height="30.287"/>
</g>
<rect x="79.522" y="392.898" style="fill:#FF6F52;" width="177.289" height="30.287"/>
<rect x="310.808" y="259.029" style="fill:#E2ECF2;" width="110.561" height="238.664"/>
<polygon style="fill:#BAC6CC;" points="427.426,497.692 415.311,497.692 415.311,265.086 316.868,265.086 316.868,497.692 
	304.753,497.692 304.753,252.971 427.426,252.971 "/>
<rect x="341.095" y="289.316" style="fill:#4EBFED;" width="49.986" height="178.089"/>
<path style="fill:#BAC6CC;" d="M335.04,283.259v190.204h62.099V283.259H335.04z M347.155,338.987h37.869v33.316h-37.869V338.987z
	 M347.155,384.418h37.869v33.316h-37.869V384.418z M385.024,295.373v31.499h-37.869v-31.499H385.024z M347.155,461.348v-31.499
	h37.869v31.499H347.155z"/>
<g>
</g>
<g>
</g>
<g>
</g>
<g>
</g>
<g>
</g>
<g>
</g>
<g>
</g>
<g>
</g>
<g>
</g>
<g>
</g>
<g>
</g>
<g>
</g>
<g>
</g>
<g>
</g>
<g>
</g>
</svg>
